<?xml version="1.0" encoding="utf-8"?>
<svg version="1.1" xmlns="http://www.w3.org/2000/svg" xmlns:xlink="http://www.w3.org/1999/xlink" x="0px" y="0px" viewBox="0 0 31.4 9.2" style="enable-background:new 0 0 31.4 9.2;" xml:space="preserve">
	<path d="M0,9V7.1H2V9H0z"/>
	<path d="M6.1,1.7c-0.4,0-0.7,0.2-0.7,0.7v0.3h1.5v1.5H5.5V9H3.7V4.1H2.9V2.6h0.8V2.2c0-1.4,0.7-2.1,2-2.1c0.6,0,1,0.1,1.3,0.2v1.5C6.7,1.7,6.4,1.7,6.1,1.7z"/>
	<path d="M11,9.1c-2,0-3.5-1.5-3.5-3.3v0C7.5,3.9,9,2.4,11,2.4c2,0,3.5,1.5,3.5,3.3v0C14.5,7.6,13,9.1,11,9.1z M12.7,5.8C12.7,4.8,12,4,11,4c-1,0-1.7,0.8-1.7,1.8v0c0,0.9,0.7,1.8,1.7,1.8C12,7.6,12.7,6.8,12.7,5.8L12.7,5.8z"/>
	<path d="M15.9,9V0.2h1.8V9H15.9z"/>
	<path d="M24.1,9V8.1c-0.4,0.6-1.1,1-2,1c-1.5,0-2.9-1.2-2.9-3.3v0c0-2.1,1.4-3.3,2.9-3.3c1,0,1.6,0.4,2,1V0.2h1.8V9H24.1z M24.1,5.8c0-1.1-0.7-1.8-1.6-1.8s-1.6,0.7-1.6,1.8v0c0,1.1,0.7,1.8,1.6,1.8S24.1,6.9,24.1,5.8L24.1,5.8z"/>
	<path d="M31.3,4.3c-1.2,0-2,0.7-2,2.3V9h-1.8V2.6h1.8v1.3c0.4-0.9,1-1.5,2.1-1.4L31.3,4.3L31.3,4.3z"/>
</svg>