<?xml version="1.0" encoding="utf-8"?>
<!-- Generator: Adobe Illustrator 16.0.0, SVG Export Plug-In . SVG Version: 6.00 Build 0)  -->
<!DOCTYPE svg PUBLIC "-//W3C//DTD SVG 1.1//EN" "http://www.w3.org/Graphics/SVG/1.1/DTD/svg11.dtd">
<svg version="1.1" xmlns="http://www.w3.org/2000/svg" xmlns:xlink="http://www.w3.org/1999/xlink" x="0px" y="0px"
	 width="296.82px" height="367.443px" viewBox="0 0 296.82 367.443" enable-background="new 0 0 296.82 367.443"
	 xml:space="preserve">
<g id="Calque_4">
	<path fill="#FC762B" d="M41.448,352.881c0,6.425,11.656,11.634,26.04,11.634H261.09c14.381,0,26.04-5.209,26.04-11.634v-86.496
		c0-6.427-11.659-11.635-26.04-11.635H67.488c-14.383,0-26.04,5.208-26.04,11.635V352.881z"/>
</g>
<g id="Calque_1" xmlns:dc="http://purl.org/dc/elements/1.1/" xmlns:cc="http://creativecommons.org/ns#" xmlns:rdf="http://www.w3.org/1999/02/22-rdf-syntax-ns#" xmlns:svg="http://www.w3.org/2000/svg" xmlns:sodipodi="http://sodipodi.sourceforge.net/DTD/sodipodi-0.dtd" xmlns:inkscape="http://www.inkscape.org/namespaces/inkscape">
	<g transform="translate(0,-952.36218)">
		<path d="M166.006,952.418c-0.193,0.055-0.387,0.117-0.574,0.189H24.671C11.141,952.607,0,963.557,0,977.087v296.438
			c0,13.537,11.142,24.479,24.671,24.479h12.24v3.441c0,10.046,8.314,18.358,18.36,18.358h223.187
			c10.047,0,18.361-8.312,18.361-18.358v-81.281c0-10.045-8.314-18.359-18.361-18.359h-16.256v-155.486
			c0.426-1.462,0.291-3.031-0.379-4.399c0.002-0.062,0.002-0.126,0-0.189c-0.162-0.335-0.354-0.656-0.574-0.957
			c0-0.063,0-0.126,0-0.189c-0.127-0.067-0.256-0.131-0.387-0.189c0.002-0.063,0.002-0.126,0-0.19
			c-0.123-0.066-0.25-0.13-0.379-0.188c0-0.063,0-0.127,0-0.19l-89.314-85.68c-0.121-0.132-0.248-0.258-0.379-0.379
			c-1.334-1.103-3.07-1.588-4.781-1.339L166.006,952.418z M24.674,964.848h136.169v61.009c0,13.535,10.951,24.671,24.48,24.671
			h64.641v151.279H55.274c-10.046,0-18.36,8.313-18.36,18.36v65.598H24.674c-6.91,0-12.433-5.314-12.433-12.239V977.089
			C12.241,970.18,17.764,964.848,24.674,964.848L24.674,964.848z M173.084,973.263l67.701,64.834l0.189,0.189h-55.652
			c-6.912,0-12.24-5.513-12.24-12.431L173.084,973.263L173.084,973.263z M68.086,1057.222c-13.336,0-24.288,10.953-24.288,24.29
			s10.951,24.288,24.288,24.288c13.338,0,24.289-10.951,24.289-24.288C92.375,1068.174,81.424,1057.222,68.086,1057.222z
			 M68.086,1069.464c6.723,0,12.05,5.327,12.05,12.049c0,6.723-5.327,12.048-12.05,12.048c-6.721,0-12.049-5.326-12.049-12.048
			C56.037,1074.79,61.365,1069.464,68.086,1069.464z M105.19,1109.242c-1.587,0.21-3.03,1.034-4.017,2.295l-59.098,71.335
			c-2.166,2.642-1.78,6.537,0.861,8.703c2.641,2.165,6.537,1.78,8.702-0.86l54.314-65.599l54.125,65.79
			c2.164,2.642,6.061,3.026,8.701,0.86c2.641-2.165,3.025-6.062,0.859-8.702l0,0l-10.709-13.197l18.742-19.89l33.086,40.737
			c2.113,2.641,5.965,3.068,8.605,0.956s3.068-5.966,0.957-8.606l-37.486-46.283c-1.283-1.62-3.297-2.482-5.354-2.295
			c-1.465,0.157-2.82,0.836-3.824,1.913l-22.76,23.907l-40.162-48.77c-1.204-1.505-3.046-2.354-4.973-2.295
			c-0.191-0.009-0.385-0.009-0.575,0H105.19z M278.461,1214.048c3.479,0,6.121,2.644,6.121,6.119v81.281
			c0,3.476-2.643,6.119-6.121,6.119H55.274c-3.478,0-6.12-2.645-6.12-6.119v-81.281c0-3.477,2.643-6.119,6.12-6.119"/>
	</g>
</g>
<g id="Calque_2">
	<polygon fill="#FFFFFF" points="109.015,285.21 90.655,332.257 100.6,332.257 104.615,321.546 123.359,321.546 127.375,332.257 
		137.894,332.257 118.96,285.21 	"/>
	<rect x="142.675" y="285.21" fill="#FFFFFF" width="9.37" height="47.047"/>
	<rect x="77.075" y="323.267" fill="#FFFFFF" width="8.989" height="8.989"/>
</g>
<g id="Calque_5">
	<polygon fill="#FC762B" points="113.795,296.11 120.298,313.706 107.485,313.706 	"/>
</g>
<g id="Calque_3" display="none">
	<path display="inline" d="M90.671,418.642h12.24v3.441c0,10.046,8.314,18.358,18.36,18.358h223.187
		c10.047,0,18.361-8.312,18.361-18.358v-81.281c0-10.045-8.314-18.359-18.361-18.359h-16.256V166.957"/>
	<path display="inline" d="M315.965,171.166v151.279H121.274c-10.046,0-18.36,8.313-18.36,18.36v65.598H90.674"/>
	<polygon display="inline" points="175.015,358.21 156.654,405.257 166.599,405.257 170.615,394.546 189.359,394.546 
		193.375,405.257 203.894,405.257 184.961,358.21 	"/>
	<rect x="208.676" y="358.21" display="inline" width="9.369" height="47.047"/>
	<polygon display="inline" fill="#FFFFFF" points="179.795,369.11 186.299,386.706 173.484,386.706 	"/>
	<rect x="143.075" y="396.267" display="inline" width="8.989" height="8.989"/>
</g>
</svg>
