<?xml version="1.0" encoding="utf-8"?>
<!-- Generator: Adobe Illustrator 16.0.0, SVG Export Plug-In . SVG Version: 6.00 Build 0)  -->
<!DOCTYPE svg PUBLIC "-//W3C//DTD SVG 1.1//EN" "http://www.w3.org/Graphics/SVG/1.1/DTD/svg11.dtd">
<svg version="1.1"
	 id="Calque_1" xmlns:dc="http://purl.org/dc/elements/1.1/" xmlns:cc="http://creativecommons.org/ns#" xmlns:rdf="http://www.w3.org/1999/02/22-rdf-syntax-ns#" xmlns:svg="http://www.w3.org/2000/svg" xmlns:sodipodi="http://sodipodi.sourceforge.net/DTD/sodipodi-0.dtd" xmlns:inkscape="http://www.inkscape.org/namespaces/inkscape"
	 xmlns="http://www.w3.org/2000/svg" xmlns:xlink="http://www.w3.org/1999/xlink" x="0px" y="0px" width="290.508px"
	 height="361.085px" viewBox="169.489 152.071 290.508 361.085" enable-background="new 169.489 152.071 290.508 361.085"
	 xml:space="preserve">
<g transform="translate(0,-952.36218)">
	<path d="M194.16,1104.439c-13.531,0-24.671,11.14-24.671,24.671v296.246c0,13.539,11.14,24.672,24.671,24.672h18.36v3.442
		c0,6.762,5.478,12.048,12.24,12.048h223.188c6.761,0,12.049-5.286,12.049-12.048v-81.281c0-6.761-5.288-12.239-12.049-12.239
		h-16.256v-162.562c0.024-0.318,0.024-0.639,0-0.957c0.001-0.063,0.001-0.126,0-0.189c0.004-0.126,0.004-0.253,0-0.379
		c0.001-0.063,0.001-0.127,0-0.19c-0.027-0.388-0.091-0.772-0.19-1.147c0.001-0.063,0.001-0.126,0-0.19
		c-0.059-0.13-0.121-0.259-0.189-0.385c0.001-0.063,0.001-0.127,0-0.19c-0.059-0.128-0.122-0.255-0.189-0.379
		c-0.062-0.064-0.125-0.128-0.189-0.19c-0.172-0.27-0.364-0.525-0.576-0.765c0.002-0.063,0.002-0.127,0-0.19
		c-0.12-0.132-0.247-0.258-0.379-0.379l-89.314-85.681c-0.446-0.46-0.963-0.847-1.529-1.147c-0.542-0.276-1.122-0.47-1.722-0.575
		c-0.317-0.025-0.638-0.025-0.955,0h-0.957H194.167L194.16,1104.439z M194.16,1116.679h136.17v61.201
		c0,13.535,11.143,24.48,24.671,24.48h64.451v157.59H224.76c-6.763,0-12.24,5.479-12.24,12.24v65.599h-18.36
		c-6.911,0-12.432-5.506-12.432-12.432V1129.11C181.729,1122.2,187.25,1116.679,194.16,1116.679L194.16,1116.679z M342.57,1124.903
		l67.702,65.216h-55.271c-6.912,0-12.431-5.32-12.431-12.24V1124.903L342.57,1124.903z M305.276,1216.129
		c-2.43,0.391-4.389,2.199-4.973,4.59l-22.95,86.063c-1.371,3.089,0.021,6.706,3.111,8.077c3.09,1.372,6.706-0.021,8.077-3.111
		c0.242-0.545,0.403-1.123,0.478-1.715l23.141-86.062c0.999-3.229-0.808-6.657-4.037-7.657
		C307.202,1216.029,306.227,1215.966,305.276,1216.129z M260.906,1232.578c-1.125,0.154-2.184,0.617-3.06,1.338l-37.485,28.114
		c-2.694,2.042-3.222,5.881-1.179,8.575c0.337,0.445,0.734,0.841,1.179,1.179l37.103,28.879c2.358,2.421,6.233,2.473,8.655,0.114
		c2.422-2.359,2.473-6.234,0.114-8.655c-0.388-0.399-0.83-0.743-1.311-1.022l-30.791-24.097l30.982-23.333
		c2.767-1.941,3.437-5.758,1.495-8.526C265.321,1233.309,263.133,1232.324,260.906,1232.578L260.906,1232.578z M327.079,1233.724
		c-3.361,0.36-5.795,3.376-5.436,6.737c0.188,1.754,1.123,3.342,2.566,4.356l31.174,23.332l-30.982,24.099
		c-2.924,1.696-3.919,5.442-2.223,8.366c1.697,2.923,5.442,3.918,8.366,2.222c0.483-0.281,0.926-0.626,1.315-1.026l37.293-28.878
		c2.693-2.043,3.221-5.882,1.179-8.575c-0.338-0.444-0.733-0.841-1.179-1.178l-37.484-28.114c-1.138-0.91-2.562-1.385-4.017-1.339
		c-0.192-0.009-0.384-0.009-0.575,0L327.079,1233.724z M285.195,1388.829c5.754,0,10.367,1.57,13.961,4.972
		c2.14,2.011,3.712,5.031,4.781,8.797l-9.372,2.104c-0.557-2.439-1.677-4.324-3.442-5.738c-1.765-1.412-3.978-2.104-6.502-2.104
		c-3.487,0-6.244,1.322-8.415,3.824c-2.171,2.504-3.251,6.445-3.251,12.049c0,5.949,1.111,10.29,3.251,12.814
		c2.139,2.523,4.801,3.824,8.224,3.824c2.522,0,4.684-0.881,6.502-2.486c1.819-1.605,3.225-4.207,4.017-7.65l9.18,3.061
		c-1.412,5.133-3.793,8.791-7.077,11.283c-3.282,2.492-7.382,3.826-12.431,3.826c-6.247,0-11.471-2.234-15.491-6.503
		c-4.024-4.269-5.929-10.002-5.929-17.403c0-7.828,1.886-13.836,5.929-18.168C273.172,1390.999,278.604,1388.828,285.195,1388.829
		L285.195,1388.829z M328.8,1388.829c5.903,0,10.404,1.236,13.388,3.824c2.983,2.589,4.44,6.006,4.59,10.326l-9.371,0.381
		c-0.404-2.418-1.341-4.105-2.678-5.165c-1.337-1.058-3.445-1.53-6.12-1.53c-2.759,0-4.941,0.588-6.502,1.723
		c-1.006,0.727-1.339,1.648-1.339,2.867c0,1.115,0.397,2.078,1.339,2.869c1.198,1.006,4.176,1.971,8.797,3.061
		c4.621,1.092,7.922,2.275,10.137,3.442c2.213,1.166,3.911,2.758,5.164,4.781c1.25,2.021,1.912,4.484,1.912,7.458
		c0,2.697-0.798,5.297-2.295,7.65c-1.498,2.354-3.573,4.019-6.312,5.164c-2.739,1.145-6.05,1.721-10.136,1.721
		c-5.948,0-10.583-1.266-13.771-4.016s-5.117-6.785-5.737-12.049l9.371-0.957c0.557,3.104,1.551,5.432,3.251,6.886
		c1.701,1.455,3.997,2.104,6.886,2.104c3.059,0,5.334-0.618,6.885-1.913c1.551-1.294,2.486-2.857,2.486-4.59
		c0-1.111-0.496-2.088-1.148-2.868c-0.652-0.782-1.624-1.335-3.251-1.913c-1.112-0.386-3.691-1.119-7.649-2.104
		c-5.092-1.264-8.656-2.75-10.71-4.59c-2.889-2.59-4.399-5.842-4.399-9.562c0-2.396,0.745-4.609,2.104-6.693
		c1.358-2.084,3.181-3.69,5.737-4.781s5.756-1.53,9.371-1.53V1388.829z M372.596,1388.829c5.905,0,10.403,1.236,13.388,3.824
		c2.984,2.589,4.632,6.006,4.782,10.326l-9.563,0.381c-0.404-2.418-1.342-4.105-2.677-5.165c-1.338-1.058-3.255-1.53-5.93-1.53
		c-2.759,0-4.94,0.588-6.502,1.723c-1.005,0.727-1.53,1.648-1.53,2.867c0,1.115,0.588,2.078,1.53,2.869
		c1.198,1.006,3.984,1.971,8.606,3.061c4.62,1.092,8.114,2.275,10.327,3.442c2.215,1.166,3.912,2.758,5.164,4.781
		c1.251,2.021,1.912,4.484,1.912,7.458c0,2.697-0.797,5.297-2.295,7.65c-1.497,2.354-3.572,4.019-6.312,5.164
		c-2.738,1.145-6.242,1.721-10.327,1.721c-5.948,0-10.391-1.266-13.579-4.016c-3.187-2.75-5.116-6.785-5.737-12.049l9.18-0.957
		c0.558,3.104,1.742,5.432,3.443,6.886c1.7,1.455,3.996,2.104,6.885,2.104c3.06,0,5.333-0.618,6.885-1.913
		c1.551-1.294,2.295-2.857,2.295-4.59c0-1.111-0.3-2.088-0.956-2.868c-0.654-0.782-1.816-1.335-3.442-1.913
		c-1.112-0.386-3.692-1.119-7.65-2.104c-5.09-1.264-8.656-2.75-10.71-4.59c-2.888-2.59-4.207-5.842-4.207-9.562
		c0-2.396,0.551-4.609,1.912-6.693c1.359-2.084,3.372-3.69,5.929-4.781s5.565-1.53,9.18-1.53V1388.829z M246.562,1427.651h8.989
		v8.989h-8.989V1427.651z"/>
</g>
</svg>
