<?xml version="1.0" encoding="utf-8"?>
<!-- Generator: Adobe Illustrator 16.0.0, SVG Export Plug-In . SVG Version: 6.00 Build 0)  -->
<!DOCTYPE svg PUBLIC "-//W3C//DTD SVG 1.1//EN" "http://www.w3.org/Graphics/SVG/1.1/DTD/svg11.dtd">
<svg version="1.1"
	 id="Calque_1" xmlns:dc="http://purl.org/dc/elements/1.1/" xmlns:cc="http://creativecommons.org/ns#" xmlns:rdf="http://www.w3.org/1999/02/22-rdf-syntax-ns#" xmlns:svg="http://www.w3.org/2000/svg" xmlns:sodipodi="http://sodipodi.sourceforge.net/DTD/sodipodi-0.dtd" xmlns:inkscape="http://www.inkscape.org/namespaces/inkscape"
	 xmlns="http://www.w3.org/2000/svg" xmlns:xlink="http://www.w3.org/1999/xlink" x="0px" y="0px" width="262.207px"
	 height="345.779px" viewBox="184.931 188.021 262.207 345.779" enable-background="new 184.931 188.021 262.207 345.779"
	 xml:space="preserve">
<g transform="translate(0,-952.36218)">
	<path d="M351.513,1140.384c-0.194,0.054-0.387,0.117-0.575,0.19h-0.575h-140.76c-13.531,0-24.671,11.141-24.671,24.671v296.246
		c0,13.539,11.14,24.672,24.671,24.672h212.861c13.531,0,24.672-11.133,24.672-24.672v-228.734c0.004-0.128,0.004-0.257,0-0.386
		c0.001-0.063,0.001-0.126,0-0.189c-0.026-0.388-0.091-0.772-0.189-1.147c0.001-0.063,0.001-0.127,0-0.19
		c0.004-0.126,0.004-0.253,0-0.379c-0.062-0.064-0.126-0.128-0.19-0.19c0.001-0.063,0.001-0.126,0-0.189
		c-0.059-0.128-0.122-0.255-0.189-0.38c-0.059-0.13-0.122-0.259-0.189-0.385c-0.063-0.001-0.127-0.001-0.189,0
		c-0.06-0.128-0.122-0.255-0.19-0.379c-0.062-0.065-0.125-0.128-0.189-0.19c-0.059-0.128-0.122-0.255-0.189-0.379
		c-0.062-0.064-0.125-0.128-0.19-0.19c-0.062-0.064-0.125-0.127-0.189-0.189l-89.313-85.68c-0.121-0.132-0.248-0.258-0.38-0.379
		c-0.185-0.137-0.376-0.264-0.575-0.38c-0.691-0.472-1.473-0.798-2.295-0.957c-0.318-0.025-0.638-0.025-0.956,0
		c-0.062-0.064-0.125-0.127-0.189-0.189L351.513,1140.384z M209.605,1152.814h135.979v61.009c0,13.535,11.143,24.671,24.671,24.671
		h64.643v222.999c0,6.925-5.521,12.431-12.432,12.431H209.605c-6.909,0-12.431-5.506-12.431-12.431v-296.247
		C197.174,1158.336,202.696,1152.814,209.605,1152.814L209.605,1152.814z M357.824,1161.038l63.495,60.818l4.59,4.398h-55.654
		c-6.912,0-12.431-5.513-12.431-12.431V1161.038z"/>
</g>
</svg>
