<svg xmlns="http://www.w3.org/2000/svg" xmlns:xlink="http://www.w3.org/1999/xlink" xmlns:sketch="http://www.bohemiancoding.com/sketch/ns" viewBox="0 0 87 111" version="1.1" x="0px" y="0px"><title>html</title><description>Created with Sketch (http://www.bohemiancoding.com/sketch)</description><g stroke="none" stroke-width="1" fill="none" fill-rule="evenodd" sketch:type="MSPage"><path d="M10,97.9975586 L10,12 C10,10 12,10 12,10 L58,10 L76,28 L76,98 C76,100 74,100 74,100 L12,100 C12,100 10,100 10,97.9975586 Z M13,95.1177051 L13,14.88 C13,13 14.8208955,13 14.8208955,13 L55,13 L55,29 C55,31 57,31 57,31 L73,31 L73,95.12 C73,97 71.1791045,97 71.1791045,97 L14.8208955,97 C14.8208955,97 13,97 13,95.1177051 Z M36.1257324,75.0883892 L17.9689941,65.1574027 L17.9689941,59.6578633 L36.1257324,49.7723276 L36.1257324,56.2490579 L23.4611816,62.3394569 L36.1257324,68.6571096 L36.1257324,75.0883892 Z M37.8059082,79.4516602 L44.3640137,45 L48.1760254,45 L41.5456543,79.4516602 L37.8059082,79.4516602 Z M49.8562012,75.1111146 L49.8562012,68.679835 L62.5388184,62.407633 L49.8562012,56.2036072 L49.8562012,49.8177783 L68.0310059,59.7033141 L68.0310059,65.1574027 L49.8562012,75.1111146 Z M49.8562012,75.1111146" fill="#000000" sketch:type="MSShapeGroup"></path></g></svg>